<svg xmlns:rdf="http://www.w3.org/1999/02/22-rdf-syntax-ns#" xmlns="http://www.w3.org/2000/svg" viewBox="0 0 99.999997 95" height="95" width="1e2" version="1.1" xmlns:cc="http://creativecommons.org/ns#" xmlns:dc="http://purl.org/dc/elements/1.1/">
	<g transform="matrix(1.2 0 0 1.2 -14 -14)">
		<path d="m40 11-28 28 10 39 37 9.9.86-.48.12-2.3-.11.11-36-9.5-9.5-36 26-26 34 9 2.8-.76.46-1.1z"/>
		<g transform="matrix(.73 .026 .074 .65 30 21)">
			<path style="stroke:#000" d="m63-3.9c-5.2 1.9-4.5 8.2-4.5 12 .069 15-2 28-11 43-4.5 5.5-20-5.6-21-17-.72-5.7-8-2.3-9.1 5.4-2 10-3 14-12 26-1.8 3-2.5-2-4.6-11-2.7-12-14-26-24-27-5.7-1.5-5.6 5.9-3.3 9.2 5.1 6.4 21 10 23 30 1 8.9 7.5 12 13 4.4 5.3-7.3 9.9-14 13-25 3.2 9.2 18 13 20 14 2.6 4.2-13 29-14 40 .36 6.4 7.7.41 8.7-4.2 1.7-6.5 9.3-13 11-8.7 3.9 7.7 12 11 20 10 3 .70 9.1-4.8 3.7-5-15 1-16-7-21-12 8-10 23-16 27-20 5-5-3-5-9-3-5 2-21 18-27 24 11-23 22-43 24-66 0-4.8 2-21-3-18z"/>
		</g>
	</g>
</svg>
